<svg width="20" height="20" viewBox="0 0 20 20" fill="none" xmlns="http://www.w3.org/2000/svg">
<path d="M10 20.0004C12.579 20.0004 14 18.6504 14 16.2004C14 12.9574 10.763 10.3294 10.625 10.2194C10.4476 10.0774 10.2272 10 10 10C9.77279 10 9.55236 10.0774 9.375 10.2194C9.237 10.3294 6 12.9574 6 16.2004C6 18.6504 7.421 20.0004 10 20.0004ZM10 12.3614C11.1097 13.3566 11.8203 14.7207 12 16.2004C12 17.3124 11.665 18.0004 10 18.0004C8.335 18.0004 8 17.3124 8 16.2004C8.17967 14.7207 8.89035 13.3566 10 12.3614ZM4.625 0.219375C4.44764 0.077372 4.22721 0 4 0C3.77279 0 3.55236 0.077372 3.375 0.219375C3.237 0.329375 0 2.95738 0 6.20038C0 8.65038 1.421 10.0004 4 10.0004C6.579 10.0004 8 8.65038 8 6.20038C8 2.95738 4.763 0.329375 4.625 0.219375ZM4 8.00038C2.335 8.00038 2 7.31238 2 6.20038C2.17967 4.7207 2.89035 3.35655 4 2.36138C5.10965 3.35655 5.82033 4.7207 6 6.20038C6 7.31238 5.665 8.00038 4 8.00038ZM16.625 0.219375C16.4476 0.077372 16.2272 0 16 0C15.7728 0 15.5524 0.077372 15.375 0.219375C15.237 0.329375 12 2.95738 12 6.20038C12 8.65038 13.421 10.0004 16 10.0004C18.579 10.0004 20 8.65038 20 6.20038C20 2.95738 16.763 0.329375 16.625 0.219375ZM16 8.00038C14.335 8.00038 14 7.31238 14 6.20038C14.1797 4.7207 14.8903 3.35655 16 2.36138C17.1097 3.35655 17.8203 4.7207 18 6.20038C18 7.31238 17.665 8.00038 16 8.00038Z" fill="#579AFF"/>
</svg>
