<svg width="22" height="21" viewBox="0 0 22 21" fill="none" xmlns="http://www.w3.org/2000/svg">
<path d="M16 14.4376H16.7143C17.8509 14.4376 18.941 13.986 19.7447 13.1823C20.5485 12.3786 21 11.2885 21 10.1518C21 9.0152 20.5485 7.92511 19.7447 7.12139C18.941 6.31766 17.8509 5.86613 16.7143 5.86613V5.86613C16.6783 4.54005 16.117 3.28258 15.1539 2.37035C14.1907 1.45811 12.9047 0.96585 11.5786 1.00184C10.2525 1.03784 8.99502 1.59914 8.08279 2.56227C7.17056 3.52541 6.67829 4.81147 6.71429 6.13756C6.2575 5.96471 5.77406 5.87286 5.28571 5.86613C4.14907 5.86613 3.05898 6.31766 2.25526 7.12139C1.45153 7.92511 1 9.0152 1 10.1518C1 11.2885 1.45153 12.3786 2.25526 13.1823C3.05898 13.986 4.14907 14.4376 5.28571 14.4376H6" stroke="#4314FF" stroke-linecap="round" stroke-linejoin="round"/>
<path d="M8.8429 14.4376H13.1429" stroke="#4314FF" stroke-linecap="round" stroke-linejoin="round"/>
<path d="M7.42857 15.8661C8.21755 15.8661 8.85714 15.2266 8.85714 14.4376C8.85714 13.6486 8.21755 13.009 7.42857 13.009C6.63959 13.009 6 13.6486 6 14.4376C6 15.2266 6.63959 15.8661 7.42857 15.8661Z" stroke="#4314FF" stroke-linecap="round" stroke-linejoin="round"/>
<path d="M3.85716 20.1519C4.64614 20.1519 5.28573 19.5123 5.28573 18.7233C5.28573 17.9343 4.64614 17.2947 3.85716 17.2947C3.06818 17.2947 2.42859 17.9343 2.42859 18.7233C2.42859 19.5123 3.06818 20.1519 3.85716 20.1519Z" stroke="#4314FF" stroke-linecap="round" stroke-linejoin="round"/>
<path d="M18.1428 20.1519C18.9318 20.1519 19.5714 19.5123 19.5714 18.7233C19.5714 17.9343 18.9318 17.2947 18.1428 17.2947C17.3538 17.2947 16.7142 17.9343 16.7142 18.7233C16.7142 19.5123 17.3538 20.1519 18.1428 20.1519Z" stroke="#4314FF" stroke-linecap="round" stroke-linejoin="round"/>
<path d="M11 20.1519C11.789 20.1519 12.4286 19.5123 12.4286 18.7233C12.4286 17.9343 11.789 17.2947 11 17.2947C10.211 17.2947 9.57141 17.9343 9.57141 18.7233C9.57141 19.5123 10.211 20.1519 11 20.1519Z" stroke="#4314FF" stroke-linecap="round" stroke-linejoin="round"/>
<path d="M14.5714 15.8661C15.3604 15.8661 16 15.2266 16 14.4376C16 13.6486 15.3604 13.009 14.5714 13.009C13.7824 13.009 13.1428 13.6486 13.1428 14.4376C13.1428 15.2266 13.7824 15.8661 14.5714 15.8661Z" stroke="#4314FF" stroke-linecap="round" stroke-linejoin="round"/>
</svg>
