<svg width="20" height="18" viewBox="0 0 20 18" fill="none" xmlns="http://www.w3.org/2000/svg">
<path d="M9.99998 0C8.68678 0 7.38643 0.258656 6.17318 0.761199C4.95993 1.26374 3.85755 2.00033 2.92897 2.92891C1.05362 4.80426 6.07304e-05 7.34778 6.07304e-05 9.99992C-0.00517856 11.4951 0.328647 12.9719 0.976434 14.3195C1.62422 15.667 2.56911 16.8501 3.74003 17.7799L4.00003 17.9999H15.9999L16.2699 17.7799C17.439 16.8491 18.382 15.6656 19.028 14.3181C19.6741 12.9706 20.0063 11.4942 19.9999 9.99992C19.9999 7.34778 18.9463 4.80426 17.071 2.92891C15.1956 1.05356 12.6521 0 9.99998 0ZM16.3099 5.09996L14.9999 6.45995L13.54 4.99996L14.8999 3.68997C15.4327 4.09269 15.9072 4.56718 16.3099 5.09996ZM9.99998 1.99998C10.3342 1.99971 10.6682 2.01975 11 2.05998V3.99997H8.99999V2.05998C9.3318 2.01975 9.66575 1.99971 9.99998 1.99998ZM6.46001 4.99996L5.00002 6.45995L3.69003 5.09996C4.09275 4.56718 4.56724 4.09269 5.10002 3.68997L6.46001 4.99996ZM2.00005 9.99992C1.99982 9.66569 2.01986 9.33174 2.06005 8.99993H4.00003V10.9999H2.07005C2.02151 10.6688 1.99811 10.3345 2.00005 9.99992ZM11.73 15.9999C11.5542 15.6968 11.3018 15.4452 10.9982 15.2704C10.6946 15.0955 10.3504 15.0034 9.99998 15.0034C9.64961 15.0034 9.30538 15.0955 9.00177 15.2704C8.69815 15.4452 8.44581 15.6968 8.27 15.9999H6.13001C6.17087 15.8404 6.22095 15.6835 6.28001 15.5299C6.5109 14.9419 6.87775 14.4171 7.35052 13.9982C7.82328 13.5793 8.38853 13.2783 8.99999 13.1199V6.99995H11V13.1299C11.5843 13.28 12.1272 13.5604 12.5878 13.9501C13.0484 14.3397 13.415 14.8285 13.66 15.3799C13.7493 15.5795 13.8196 15.7871 13.87 15.9999H11.73ZM15.9999 10.9999V8.99993H17.9399C17.9801 9.33174 18.0002 9.66569 17.9999 9.99992C18.0019 10.3345 17.9785 10.6688 17.9299 10.9999H15.9999Z" fill="#FF5C00"/>
</svg>
