<svg width="20" height="16" viewBox="0 0 20 16" fill="none" xmlns="http://www.w3.org/2000/svg">
<path d="M13.6546 8.7629C13.591 8.7629 13.5286 8.76167 13.4658 8.75876L0.416733 8.7629C0.186789 8.7629 0.0009058 8.57702 0.0009058 8.34708C0.0009058 8.11752 0.186789 7.93125 0.416733 7.93125L13.4842 7.9275C13.5528 7.93002 13.6035 7.93125 13.6551 7.93125C15.6128 7.93125 17.2053 6.33866 17.2053 4.38103C17.2053 2.42379 15.6127 0.831201 13.6551 0.831201C11.6978 0.831201 10.1052 2.42379 10.1052 4.38103C10.1052 4.86253 10.2 5.32908 10.3859 5.76736C10.4762 5.97899 10.3772 6.22311 10.1664 6.31291C9.95474 6.40355 9.71024 6.30417 9.62083 6.09338C9.39049 5.55158 9.27365 4.97569 9.27365 4.38148C9.27365 1.96559 11.2392 0 13.6551 0C16.071 0 18.037 1.96597 18.037 4.38148C18.0365 6.79738 16.0705 8.7629 13.6546 8.7629ZM20 12.4924C20 10.83 18.6478 9.47771 16.9853 9.47771C16.9416 9.47771 16.8984 9.47855 16.873 9.48023L0.41628 9.47771C0.186724 9.47771 0.0004529 9.66359 0.0004529 9.89354C0.0004529 10.1231 0.186724 10.3094 0.41628 10.3094L16.8909 10.3114L16.9853 10.3094C18.1891 10.3094 19.1683 11.2886 19.1683 12.4924C19.1683 13.6962 18.1891 14.6754 16.9853 14.6754C15.7815 14.6754 14.8023 13.6962 14.8023 12.4924C14.8023 12.196 14.8605 11.9095 14.9748 11.64C15.0651 11.4287 14.9661 11.1842 14.7553 11.0944C14.544 11.0038 14.3 11.1023 14.2097 11.314C14.0509 11.6865 13.9707 12.0832 13.9707 12.492C13.9707 14.1544 15.3229 15.5066 16.9854 15.5066C18.6478 15.5066 20 14.1548 20 12.4924ZM0.41628 7.13874L5.29007 7.13706L5.3853 7.13874C6.7147 7.13874 7.79661 6.05676 7.79661 4.72744C7.79661 3.39811 6.71463 2.31613 5.3853 2.31613C4.05553 2.31613 2.97355 3.39811 2.97355 4.72744C2.97355 5.05423 3.0376 5.37152 3.1648 5.67011C3.2546 5.88136 3.49956 5.97867 3.71035 5.88964C3.9216 5.79938 4.02013 5.55534 3.92988 5.34409C3.84713 5.14908 3.80514 4.94198 3.80514 4.72744C3.80514 3.85631 4.51367 3.14772 5.38524 3.14772C6.25636 3.14772 6.96496 3.85625 6.96496 4.72744C6.96496 5.59862 6.25643 6.30715 5.38524 6.30715L5.29919 6.30547L0.415827 6.30715C0.186271 6.30715 0 6.49342 0 6.72298C0.0004529 6.95286 0.186789 7.13874 0.41628 7.13874ZM6.72298 11.5742C6.72298 11.3443 6.53709 11.1584 6.30715 11.1584H0.41628C0.186724 11.1584 0.0004529 11.3443 0.0004529 11.5742C0.0004529 11.8042 0.186724 11.9901 0.41628 11.9901H6.30715C6.53709 11.9901 6.72298 11.8042 6.72298 11.5742Z" fill="#00D4A1"/>
</svg>
